<svg viewBox="0 0 500 500" xmlns="http://www.w3.org/2000/svg"><path d="m296.73 86.25-.14-.14c.27.82.54 1.63.68 2.44-.14-.82-.41-1.49-.54-2.31zm-122.45 70.72c7.87-6.24 15.88-12.76 23.89-19.55-8.01 5.97-16.02 12.49-23.89 19.55zm31.5-75.74c15.88-6.92 36.92-15.34 54.98-16.56-16.56.82-36.38 7.74-54.98 16.56zm-6.93 3.12c-3.26 1.49-15.34 7.06-31.22 17.65 9.91-6.11 21.85-13.03 34.61-19.14-1.22.54-2.31.95-3.39 1.49zm-41.53 24.43s-6.24 4.34-15.48 12.49c6.92-5.84 13.57-10.86 19.82-15.34-1.49.95-2.99 1.9-4.34 2.85zm140.08 164.25c-5.7-4.89-11.67-7.74-14.93-8.69.81 2.31 2.31 5.7 4.07 10.99 1.09 3.53 1.9 6.11 2.44 8.42 1.49 5.16 2.04 6.52 3.8 8.14 2.71 2.17 7.06 3.67 9.77 2.31 2.44-1.36 3.12-5.57 3.12-6.92.27-5.84-5.02-11.54-8.28-14.25zm0 0c-5.7-4.89-11.67-7.74-14.93-8.69.81 2.31 2.31 5.7 4.07 10.99 1.09 3.53 1.9 6.11 2.44 8.42 1.49 5.16 2.04 6.52 3.8 8.14 2.71 2.17 7.06 3.67 9.77 2.31 2.44-1.36 3.12-5.57 3.12-6.92.27-5.84-5.02-11.54-8.28-14.25zm0 0c-5.7-4.89-11.67-7.74-14.93-8.69.81 2.31 2.31 5.7 4.07 10.99 1.09 3.53 1.9 6.11 2.44 8.42 1.49 5.16 2.04 6.52 3.8 8.14 2.71 2.17 7.06 3.67 9.77 2.31 2.44-1.36 3.12-5.57 3.12-6.92.27-5.84-5.02-11.54-8.28-14.25zm0 0c-5.7-4.89-11.67-7.74-14.93-8.69.81 2.31 2.31 5.7 4.07 10.99 1.09 3.53 1.9 6.11 2.44 8.42 1.49 5.16 2.04 6.52 3.8 8.14 2.71 2.17 7.06 3.67 9.77 2.31 2.44-1.36 3.12-5.57 3.12-6.92.27-5.84-5.02-11.54-8.28-14.25zm0 0c-5.7-4.89-11.67-7.74-14.93-8.69.81 2.31 2.31 5.7 4.07 10.99 1.09 3.53 1.9 6.11 2.44 8.42 1.49 5.16 2.04 6.52 3.8 8.14 2.71 2.17 7.06 3.67 9.77 2.31 2.44-1.36 3.12-5.57 3.12-6.92.27-5.84-5.02-11.54-8.28-14.25zm0 0c-5.7-4.89-11.67-7.74-14.93-8.69.81 2.31 2.31 5.7 4.07 10.99 1.09 3.53 1.9 6.11 2.44 8.42 1.49 5.16 2.04 6.52 3.8 8.14 2.71 2.17 7.06 3.67 9.77 2.31 2.44-1.36 3.12-5.57 3.12-6.92.27-5.84-5.02-11.54-8.28-14.25zm0 0c-5.7-4.89-11.67-7.74-14.93-8.69.81 2.31 2.31 5.7 4.07 10.99 1.09 3.53 1.9 6.11 2.44 8.42 1.49 5.16 2.04 6.52 3.8 8.14 2.71 2.17 7.06 3.67 9.77 2.31 2.44-1.36 3.12-5.57 3.12-6.92.27-5.84-5.02-11.54-8.28-14.25zm0 0c-5.7-4.89-11.67-7.74-14.93-8.69.81 2.31 2.31 5.7 4.07 10.99 1.09 3.53 1.9 6.11 2.44 8.42 1.49 5.16 2.04 6.52 3.8 8.14 2.71 2.17 7.06 3.67 9.77 2.31 2.44-1.36 3.12-5.57 3.12-6.92.27-5.84-5.02-11.54-8.28-14.25zm0 0c-5.7-4.89-11.67-7.74-14.93-8.69.81 2.31 2.31 5.7 4.07 10.99 1.09 3.53 1.9 6.11 2.44 8.42 1.49 5.16 2.04 6.52 3.8 8.14 2.71 2.17 7.06 3.67 9.77 2.31 2.44-1.36 3.12-5.57 3.12-6.92.27-5.84-5.02-11.54-8.28-14.25zm0 0c-5.7-4.89-11.67-7.74-14.93-8.69.81 2.31 2.31 5.7 4.07 10.99 1.09 3.53 1.9 6.11 2.44 8.42 1.49 5.16 2.04 6.52 3.8 8.14 2.71 2.17 7.06 3.67 9.77 2.31 2.44-1.36 3.12-5.57 3.12-6.92.27-5.84-5.02-11.54-8.28-14.25zm0 0c-5.7-4.89-11.67-7.74-14.93-8.69.81 2.31 2.31 5.7 4.07 10.99 1.09 3.53 1.9 6.11 2.44 8.42 1.49 5.16 2.04 6.52 3.8 8.14 2.71 2.17 7.06 3.67 9.77 2.31 2.44-1.36 3.12-5.57 3.12-6.92.27-5.84-5.02-11.54-8.28-14.25zm0 0c-5.7-4.89-11.67-7.74-14.93-8.69.81 2.31 2.31 5.7 4.07 10.99 1.09 3.53 1.9 6.11 2.44 8.42 1.49 5.16 2.04 6.52 3.8 8.14 2.71 2.17 7.06 3.67 9.77 2.31 2.44-1.36 3.12-5.57 3.12-6.92.27-5.84-5.02-11.54-8.28-14.25zm0 0c-5.7-4.89-11.67-7.74-14.93-8.69.81 2.31 2.31 5.7 4.07 10.99 1.09 3.53 1.9 6.11 2.44 8.42 1.49 5.16 2.04 6.52 3.8 8.14 2.71 2.17 7.06 3.67 9.77 2.31 2.44-1.36 3.12-5.57 3.12-6.92.27-5.84-5.02-11.54-8.28-14.25zm0 0c-5.7-4.89-11.67-7.74-14.93-8.69.81 2.31 2.31 5.7 4.07 10.99 1.09 3.53 1.9 6.11 2.44 8.42 1.49 5.16 2.04 6.52 3.8 8.14 2.71 2.17 7.06 3.67 9.77 2.31 2.44-1.36 3.12-5.57 3.12-6.92.27-5.84-5.02-11.54-8.28-14.25zm0 0c-5.7-4.89-11.67-7.74-14.93-8.69.81 2.31 2.31 5.7 4.07 10.99 1.09 3.53 1.9 6.11 2.44 8.42 1.49 5.16 2.04 6.52 3.8 8.14 2.71 2.17 7.06 3.67 9.77 2.31 2.44-1.36 3.12-5.57 3.12-6.92.27-5.84-5.02-11.54-8.28-14.25zm0 0c-5.7-4.89-11.67-7.74-14.93-8.69.81 2.31 2.31 5.7 4.07 10.99 1.09 3.53 1.9 6.11 2.44 8.42 1.49 5.16 2.04 6.52 3.8 8.14 2.71 2.17 7.06 3.67 9.77 2.31 2.44-1.36 3.12-5.57 3.12-6.92.27-5.84-5.02-11.54-8.28-14.25zm0 0c-5.7-4.89-11.67-7.74-14.93-8.69.81 2.31 2.31 5.7 4.07 10.99 1.09 3.53 1.9 6.11 2.44 8.42 1.49 5.16 2.04 6.52 3.8 8.14 2.71 2.17 7.06 3.67 9.77 2.31 2.44-1.36 3.12-5.57 3.12-6.92.27-5.84-5.02-11.54-8.28-14.25zm0 0c-5.7-4.89-11.67-7.74-14.93-8.69.81 2.31 2.31 5.7 4.07 10.99 1.09 3.53 1.9 6.11 2.44 8.42 1.49 5.16 2.04 6.52 3.8 8.14 2.71 2.17 7.06 3.67 9.77 2.31 2.44-1.36 3.12-5.57 3.12-6.92.27-5.84-5.02-11.54-8.28-14.25zm0 0c-5.7-4.89-11.67-7.74-14.93-8.69.81 2.31 2.31 5.7 4.07 10.99 1.09 3.53 1.9 6.11 2.44 8.42 1.49 5.16 2.04 6.52 3.8 8.14 2.71 2.17 7.06 3.67 9.77 2.31 2.44-1.36 3.12-5.57 3.12-6.92.27-5.84-5.02-11.54-8.28-14.25zm0 0c-5.7-4.89-11.67-7.74-14.93-8.69.81 2.31 2.31 5.7 4.07 10.99 1.09 3.53 1.9 6.11 2.44 8.42 1.49 5.16 2.04 6.52 3.8 8.14 2.71 2.17 7.06 3.67 9.77 2.31 2.44-1.36 3.12-5.57 3.12-6.92.27-5.84-5.02-11.54-8.28-14.25zm0 0c-5.7-4.89-11.67-7.74-14.93-8.69.81 2.31 2.31 5.7 4.07 10.99 1.09 3.53 1.9 6.11 2.44 8.42 1.49 5.16 2.04 6.52 3.8 8.14 2.71 2.17 7.06 3.67 9.77 2.31 2.44-1.36 3.12-5.57 3.12-6.92.27-5.84-5.02-11.54-8.28-14.25zm0 0c-5.7-4.89-11.67-7.74-14.93-8.69.81 2.31 2.31 5.7 4.07 10.99 1.09 3.53 1.9 6.11 2.44 8.42 1.49 5.16 2.04 6.52 3.8 8.14 2.71 2.17 7.06 3.67 9.77 2.31 2.44-1.36 3.12-5.57 3.12-6.92.27-5.84-5.02-11.54-8.28-14.25zm0 0c-5.7-4.89-11.67-7.74-14.93-8.69.81 2.31 2.31 5.7 4.07 10.99 1.09 3.53 1.9 6.11 2.44 8.42 1.49 5.16 2.04 6.52 3.8 8.14 2.71 2.17 7.06 3.67 9.77 2.31 2.44-1.36 3.12-5.57 3.12-6.92.27-5.84-5.02-11.54-8.28-14.25zm0 0c-5.7-4.89-11.67-7.74-14.93-8.69.81 2.31 2.31 5.7 4.07 10.99 1.09 3.53 1.9 6.11 2.44 8.42 1.49 5.16 2.04 6.52 3.8 8.14 2.71 2.17 7.06 3.67 9.77 2.31 2.44-1.36 3.12-5.57 3.12-6.92.27-5.84-5.02-11.54-8.28-14.25zm0 0c-5.7-4.89-11.67-7.74-14.93-8.69.81 2.31 2.31 5.7 4.07 10.99 1.09 3.53 1.9 6.11 2.44 8.42 1.49 5.16 2.04 6.52 3.8 8.14 2.71 2.17 7.06 3.67 9.77 2.31 2.44-1.36 3.12-5.57 3.12-6.92.27-5.84-5.02-11.54-8.28-14.25zm0 0c-5.7-4.89-11.67-7.74-14.93-8.69.81 2.31 2.31 5.7 4.07 10.99 1.09 3.53 1.9 6.11 2.44 8.42 1.49 5.16 2.04 6.52 3.8 8.14 2.71 2.17 7.06 3.67 9.77 2.31 2.44-1.36 3.12-5.57 3.12-6.92.27-5.84-5.02-11.54-8.28-14.25zm0 0c-5.7-4.89-11.67-7.74-14.93-8.69.81 2.31 2.31 5.7 4.07 10.99 1.09 3.53 1.9 6.11 2.44 8.42 1.49 5.16 2.04 6.52 3.8 8.14 2.71 2.17 7.06 3.67 9.77 2.31 2.44-1.36 3.12-5.57 3.12-6.92.27-5.84-5.02-11.54-8.28-14.25zm0 0c-5.7-4.89-11.67-7.74-14.93-8.69.81 2.31 2.31 5.7 4.07 10.99 1.09 3.53 1.9 6.11 2.44 8.42 1.49 5.16 2.04 6.52 3.8 8.14 2.71 2.17 7.06 3.67 9.77 2.31 2.44-1.36 3.12-5.57 3.12-6.92.27-5.84-5.02-11.54-8.28-14.25zm72.63-208.36c-6.92 3.94-16.56 9.37-29.86 16.97-3.8 2.17-11 6.25-17.51 14.25-1.76 2.03-2.99 3.94-3.8 5.16l-.81 1.36c.68 1.9 1.22 3.8 1.63 5.57 1.76 7.19 3.39 20.09 3.39 20.22.68 5.98 1.63 13.31 1.63 19.82-.27 14.66-5.84 26.06-9.09 32.85-8.82 18.06-31.9 51.31-67.74 79 1.22 23.21 7.33 44.52 12.35 62.03 7.06 24.43 12.62 43.58 1.63 55.25-5.29 5.7-13.17 8.15-20.5 8.15-4.61 0-9.09-.95-12.76-2.71-21.85-10.86-17.92-60-16.02-83.62.14-3.12.41-5.97.68-8.82s.54-5.57.68-8.01c-5.43 2.85-11 5.56-16.83 8.15-1.22.54-27.01 11.68-48.6 11.68-4.34 0-8.55-.54-12.35-1.63-.27 0-17.1-5.02-17.65-5.16l-.95-.27c-.54-.14-15.75-3.94-25.38-8.69-1.22-.68-2.44-1.22-3.53-2.03-6.11-1.63-12.08-4.75-16.83-10.18-3.94-4.34-9.09-12.49-8.82-31.63.68-34.21 17.78-60.27 23.35-68.82 40.86-62.31 98.55-90.4 109.68-95.29 26.33-11.81 69.5-30.95 93.8-13.44 14.25-9.91 39.91-21.58 46.42-24.57.95-.4 2.04-.81 3.39-1.49-33.95-23.65-75.21-37.63-119.74-37.63-57.83 0-109.95 23.48-147.83 61.22-37.87 37.87-61.21 90.13-61.21 147.96s23.35 109.95 61.22 147.82 90 61.22 147.83 61.22c30.27 0 59.05-6.38 84.98-18.06 4.07-30.27 3.8-52.12 3.53-66.38-.27-14.8-.41-22.13 5.97-22.8h.41c12.22 0 28.51 40.86 31.63 49.27 1.49 3.94 2.85 7.87 4.34 11.94 5.97-4.61 11.67-9.77 17.1-15.2 37.74-37.87 61.22-90 61.22-147.82s-22.53-108.06-59.05-145.66zm-64.35 235.51c-1.76.95-3.66 1.36-5.7 1.36-4.21 0-8.55-2.03-11.54-4.48-3.53-2.99-4.34-5.98-5.97-11.54-.54-2.03-1.36-4.75-2.44-8.01-1.76-5.43-3.12-8.82-4.07-10.99-1.36-3.12-2.31-5.7 0-7.87 2.31-2.31 6.38-2.03 12.63.82 9.91 4.34 24.43 15.47 23.89 28.1 0 .27-.27 9.09-6.79 12.62zm-8.28-27.15c-5.7-4.89-11.67-7.74-14.93-8.69.81 2.31 2.31 5.7 4.07 10.99 1.09 3.53 1.9 6.11 2.44 8.42 1.49 5.16 2.04 6.52 3.8 8.14 2.71 2.17 7.06 3.67 9.77 2.31 2.44-1.36 3.12-5.57 3.12-6.92.27-5.84-5.02-11.54-8.28-14.25zm0 0c-5.7-4.89-11.67-7.74-14.93-8.69.81 2.31 2.31 5.7 4.07 10.99 1.09 3.53 1.9 6.11 2.44 8.42 1.49 5.16 2.04 6.52 3.8 8.14 2.71 2.17 7.06 3.67 9.77 2.31 2.44-1.36 3.12-5.57 3.12-6.92.27-5.84-5.02-11.54-8.28-14.25zm0 0c-5.7-4.89-11.67-7.74-14.93-8.69.81 2.31 2.31 5.7 4.07 10.99 1.09 3.53 1.9 6.11 2.44 8.42 1.49 5.16 2.04 6.52 3.8 8.14 2.71 2.17 7.06 3.67 9.77 2.31 2.44-1.36 3.12-5.57 3.12-6.92.27-5.84-5.02-11.54-8.28-14.25zm0 0c-5.7-4.89-11.67-7.74-14.93-8.69.81 2.31 2.31 5.7 4.07 10.99 1.09 3.53 1.9 6.11 2.44 8.42 1.49 5.16 2.04 6.52 3.8 8.14 2.71 2.17 7.06 3.67 9.77 2.31 2.44-1.36 3.12-5.57 3.12-6.92.27-5.84-5.02-11.54-8.28-14.25zm0 0c-5.7-4.89-11.67-7.74-14.93-8.69.81 2.31 2.31 5.7 4.07 10.99 1.09 3.53 1.9 6.11 2.44 8.42 1.49 5.16 2.04 6.52 3.8 8.14 2.71 2.17 7.06 3.67 9.77 2.31 2.44-1.36 3.12-5.57 3.12-6.92.27-5.84-5.02-11.54-8.28-14.25zm0 0c-5.7-4.89-11.67-7.74-14.93-8.69.81 2.31 2.31 5.7 4.07 10.99 1.09 3.53 1.9 6.11 2.44 8.42 1.49 5.16 2.04 6.52 3.8 8.14 2.71 2.17 7.06 3.67 9.77 2.31 2.44-1.36 3.12-5.57 3.12-6.92.27-5.84-5.02-11.54-8.28-14.25zm0 0c-5.7-4.89-11.67-7.74-14.93-8.69.81 2.31 2.31 5.7 4.07 10.99 1.09 3.53 1.9 6.11 2.44 8.42 1.49 5.16 2.04 6.52 3.8 8.14 2.71 2.17 7.06 3.67 9.77 2.31 2.44-1.36 3.12-5.57 3.12-6.92.27-5.84-5.02-11.54-8.28-14.25zm0 0c-5.7-4.89-11.67-7.74-14.93-8.69.81 2.31 2.31 5.7 4.07 10.99 1.09 3.53 1.9 6.11 2.44 8.42 1.49 5.16 2.04 6.52 3.8 8.14 2.71 2.17 7.06 3.67 9.77 2.31 2.44-1.36 3.12-5.57 3.12-6.92.27-5.84-5.02-11.54-8.28-14.25zm0 0c-5.7-4.89-11.67-7.74-14.93-8.69.81 2.31 2.31 5.7 4.07 10.99 1.09 3.53 1.9 6.11 2.44 8.42 1.49 5.16 2.04 6.52 3.8 8.14 2.71 2.17 7.06 3.67 9.77 2.31 2.44-1.36 3.12-5.57 3.12-6.92.27-5.84-5.02-11.54-8.28-14.25zm0 0c-5.7-4.89-11.67-7.74-14.93-8.69.81 2.31 2.31 5.7 4.07 10.99 1.09 3.53 1.9 6.11 2.44 8.42 1.49 5.16 2.04 6.52 3.8 8.14 2.71 2.17 7.06 3.67 9.77 2.31 2.44-1.36 3.12-5.57 3.12-6.92.27-5.84-5.02-11.54-8.28-14.25zm0 0c-5.7-4.89-11.67-7.74-14.93-8.69.81 2.31 2.31 5.7 4.07 10.99 1.09 3.53 1.9 6.11 2.44 8.42 1.49 5.16 2.04 6.52 3.8 8.14 2.71 2.17 7.06 3.67 9.77 2.31 2.44-1.36 3.12-5.57 3.12-6.92.27-5.84-5.02-11.54-8.28-14.25zm0 0c-5.7-4.89-11.67-7.74-14.93-8.69.81 2.31 2.31 5.7 4.07 10.99 1.09 3.53 1.9 6.11 2.44 8.42 1.49 5.16 2.04 6.52 3.8 8.14 2.71 2.17 7.06 3.67 9.77 2.31 2.44-1.36 3.12-5.57 3.12-6.92.27-5.84-5.02-11.54-8.28-14.25zm0 0c-5.7-4.89-11.67-7.74-14.93-8.69.81 2.31 2.31 5.7 4.07 10.99 1.09 3.53 1.9 6.11 2.44 8.42 1.49 5.16 2.04 6.52 3.8 8.14 2.71 2.17 7.06 3.67 9.77 2.31 2.44-1.36 3.12-5.57 3.12-6.92.27-5.84-5.02-11.54-8.28-14.25zm0 0c-5.7-4.89-11.67-7.74-14.93-8.69.81 2.31 2.31 5.7 4.07 10.99 1.09 3.53 1.9 6.11 2.44 8.42 1.49 5.16 2.04 6.52 3.8 8.14 2.71 2.17 7.06 3.67 9.77 2.31 2.44-1.36 3.12-5.57 3.12-6.92.27-5.84-5.02-11.54-8.28-14.25zm0 0c-5.7-4.89-11.67-7.74-14.93-8.69.81 2.31 2.31 5.7 4.07 10.99 1.09 3.53 1.9 6.11 2.44 8.42 1.49 5.16 2.04 6.52 3.8 8.14 2.71 2.17 7.06 3.67 9.77 2.31 2.44-1.36 3.12-5.57 3.12-6.92.27-5.84-5.02-11.54-8.28-14.25zm0 0c-5.7-4.89-11.67-7.74-14.93-8.69.81 2.31 2.31 5.7 4.07 10.99 1.09 3.53 1.9 6.11 2.44 8.42 1.49 5.16 2.04 6.52 3.8 8.14 2.71 2.17 7.06 3.67 9.77 2.31 2.44-1.36 3.12-5.57 3.12-6.92.27-5.84-5.02-11.54-8.28-14.25zm0 0c-5.7-4.89-11.67-7.74-14.93-8.69.81 2.31 2.31 5.7 4.07 10.99 1.09 3.53 1.9 6.11 2.44 8.42 1.49 5.16 2.04 6.52 3.8 8.14 2.71 2.17 7.06 3.67 9.77 2.31 2.44-1.36 3.12-5.57 3.12-6.92.27-5.84-5.02-11.54-8.28-14.25zm0 0c-5.7-4.89-11.67-7.74-14.93-8.69.81 2.31 2.31 5.7 4.07 10.99 1.09 3.53 1.9 6.11 2.44 8.42 1.49 5.16 2.04 6.52 3.8 8.14 2.71 2.17 7.06 3.67 9.77 2.31 2.44-1.36 3.12-5.57 3.12-6.92.27-5.84-5.02-11.54-8.28-14.25zm0 0c-5.7-4.89-11.67-7.74-14.93-8.69.81 2.31 2.31 5.7 4.07 10.99 1.09 3.53 1.9 6.11 2.44 8.42 1.49 5.16 2.04 6.52 3.8 8.14 2.71 2.17 7.06 3.67 9.77 2.31 2.44-1.36 3.12-5.57 3.12-6.92.27-5.84-5.02-11.54-8.28-14.25zm0 0c-5.7-4.89-11.67-7.74-14.93-8.69.81 2.31 2.31 5.7 4.07 10.99 1.09 3.53 1.9 6.11 2.44 8.42 1.49 5.16 2.04 6.52 3.8 8.14 2.71 2.17 7.06 3.67 9.77 2.31 2.44-1.36 3.12-5.57 3.12-6.92.27-5.84-5.02-11.54-8.28-14.25zm0 0c-5.7-4.89-11.67-7.74-14.93-8.69.81 2.31 2.31 5.7 4.07 10.99 1.09 3.53 1.9 6.11 2.44 8.42 1.49 5.16 2.04 6.52 3.8 8.14 2.71 2.17 7.06 3.67 9.77 2.31 2.44-1.36 3.12-5.57 3.12-6.92.27-5.84-5.02-11.54-8.28-14.25zm0 0c-5.7-4.89-11.67-7.74-14.93-8.69.81 2.31 2.31 5.7 4.07 10.99 1.09 3.53 1.9 6.11 2.44 8.42 1.49 5.16 2.04 6.52 3.8 8.14 2.71 2.17 7.06 3.67 9.77 2.31 2.44-1.36 3.12-5.57 3.12-6.92.27-5.84-5.02-11.54-8.28-14.25zm0 0c-5.7-4.89-11.67-7.74-14.93-8.69.81 2.31 2.31 5.7 4.07 10.99 1.09 3.53 1.9 6.11 2.44 8.42 1.49 5.16 2.04 6.52 3.8 8.14 2.71 2.17 7.06 3.67 9.77 2.31 2.44-1.36 3.12-5.57 3.12-6.92.27-5.84-5.02-11.54-8.28-14.25zm0 0c-5.7-4.89-11.67-7.74-14.93-8.69.81 2.31 2.31 5.7 4.07 10.99 1.09 3.53 1.9 6.11 2.44 8.42 1.49 5.16 2.04 6.52 3.8 8.14 2.71 2.17 7.06 3.67 9.77 2.31 2.44-1.36 3.12-5.57 3.12-6.92.27-5.84-5.02-11.54-8.28-14.25zm0 0c-5.7-4.89-11.67-7.74-14.93-8.69.81 2.31 2.31 5.7 4.07 10.99 1.09 3.53 1.9 6.11 2.44 8.42 1.49 5.16 2.04 6.52 3.8 8.14 2.71 2.17 7.06 3.67 9.77 2.31 2.44-1.36 3.12-5.57 3.12-6.92.27-5.84-5.02-11.54-8.28-14.25zm0 0c-5.7-4.89-11.67-7.74-14.93-8.69.81 2.31 2.31 5.7 4.07 10.99 1.09 3.53 1.9 6.11 2.44 8.42 1.49 5.16 2.04 6.52 3.8 8.14 2.71 2.17 7.06 3.67 9.77 2.31 2.44-1.36 3.12-5.57 3.12-6.92.27-5.84-5.02-11.54-8.28-14.25zm0 0c-5.7-4.89-11.67-7.74-14.93-8.69.81 2.31 2.31 5.7 4.07 10.99 1.09 3.53 1.9 6.11 2.44 8.42 1.49 5.16 2.04 6.52 3.8 8.14 2.71 2.17 7.06 3.67 9.77 2.31 2.44-1.36 3.12-5.57 3.12-6.92.27-5.84-5.02-11.54-8.28-14.25z" fill="#cbe0f7"/><path d="m202.25 82.86c-12.76 6.11-24.71 13.03-34.61 19.14 15.88-10.59 27.96-16.15 31.22-17.65 1.09-.54 2.17-.95 3.39-1.49z" fill="#9b9b9b"/><path d="m297.27 88.56c-.14-.82-.41-1.63-.68-2.44l.14.14c.14.82.41 1.49.54 2.31z" fill="#9b9b9b"/><path d="m296.73 86.25-.14-.14c.27.82.54 1.63.68 2.44-.14-.82-.41-1.49-.54-2.31zm-122.45 70.72c7.87-6.24 15.88-12.76 23.89-19.55-8.01 5.97-16.02 12.49-23.89 19.55zm31.5-75.74c15.88-6.92 36.92-15.34 54.98-16.56-16.56.82-36.38 7.74-54.98 16.56zm-6.93 3.12c-3.26 1.49-15.34 7.06-31.22 17.65 9.91-6.11 21.85-13.03 34.61-19.14-1.22.54-2.31.95-3.39 1.49zm-41.53 24.43s-6.24 4.34-15.48 12.49c6.92-5.84 13.57-10.86 19.82-15.34-1.49.95-2.99 1.9-4.34 2.85zm16.96 48.19c7.87-6.24 15.88-12.76 23.89-19.55-8.01 5.97-16.02 12.49-23.89 19.55z" fill="#231c0a"/><path d="m174.28 156.97c7.87-6.24 15.88-12.76 23.89-19.55-8.01 5.97-16.02 12.49-23.89 19.55zm122.45-70.72-.14-.14c.27.82.54 1.63.68 2.44-.14-.82-.41-1.49-.54-2.31z" fill="#3d3d3d"/><path d="m174.28 156.97c7.87-6.24 15.88-12.76 23.89-19.55-8.01 5.97-16.02 12.49-23.89 19.55zm0 0c7.87-6.24 15.88-12.76 23.89-19.55-8.01 5.97-16.02 12.49-23.89 19.55z" fill="#231c0a"/><path d="m482.29 20.55c-.68 3.13-11.95 4.75-18.6 5.7l-2.99.54c-33.8 5.16-58.78 15.88-80.77 25.25-2.99 1.22-7.6 3.67-14.93 7.6-6.79 3.8-15.88 9.09-28.1 16.02-3.8 2.17-11.54 6.52-18.6 14.93-.68.81-1.49 1.63-2.31 2.71-.54.54-.81 1.09-1.22 1.36-.68.81-.81.95-.95 1.08l-.14.14c-.41.68-.81 1.22-1.22 1.76-.27.54-.41.95-.68 1.36-.41.82-.81 1.63-1.09 2.17v.13c-.14.27-.14.54-.27.68-.27.68-.54.95-.81.95-.95-.14-1.22-3.12-2.17-7.47 0-.14 0-.27-.14-.41-.41-1.9-1.09-3.94-1.9-6.11-.27-.68-.54-1.36-.95-2.03 0-.14-.14-.14-.14-.14v-.14c0-.14-.14-.41-.27-.54s-.14-.41-.41-.54c0-.27-.14-.41-.41-.54v-.14c0-.13 0-.27-.14-.4q0-.14-.14-.27c-.27-.54-.68-1.09-1.09-1.63-.41-.82-1.09-1.63-1.63-2.31h-.14c-.27-.54-.54-.95-.95-1.36-1.63-2.03-3.26-4.07-5.16-5.7-.54-.68-1.22-1.22-1.9-1.77.68-.54 1.49-1.08 2.44-1.76.14 0 .27-.14.41-.27 8.01-5.29 22.13-13.17 44.12-22.94 1.49-.68 3.53-1.63 7.06-2.99 7.87-3.26 22.94-9.1 54.16-19.96 47.92-16.83 61.36-20.09 72.49-13.57 6.11 3.67 10.05 8.55 9.5 10.59z" fill="#ad7e4b"/><path d="m488.94 22.18c-1.76 7.47-13.17 9.23-24.16 10.86l-2.99.4c-33.12 5.16-57.56 15.61-79.27 24.84-2.58.95-6.52 3.26-12.49 6.38-6.92 3.94-16.56 9.37-29.86 16.97-3.8 2.17-11 6.25-17.51 14.25-1.76 2.03-2.99 3.94-3.8 5.16l-.81 1.36c.68 1.9 1.22 3.8 1.63 5.57 1.76 7.19 3.39 20.09 3.39 20.22.68 5.98 1.63 13.31 1.63 19.82-.27 14.66-5.84 26.06-9.09 32.85-8.82 18.06-31.9 51.31-67.74 79-.14-1.36-.14-2.72-.14-4.07-.14-1.36-.14-2.71-.14-4.21 32.71-26.33 53.62-56.88 61.9-73.71 3.26-6.65 8.14-16.7 8.42-30 0-5.97-.81-13.03-1.63-18.73 0-.14-1.49-12.76-3.26-19.55-.14-.41-.27-.82-.41-1.36 0-.14 0-.27-.14-.54-.14-.95-.27-1.9-.54-2.72-.27-1.22-.68-2.31-1.22-3.67v-.13c.27-.54.68-1.36 1.09-2.17.27-.41.41-.82.68-1.36.41-.54.81-1.08 1.22-1.76l.14-.14c.14-.14.27-.27.95-1.08.41-.27.68-.82 1.22-1.36.81-1.09 1.63-1.9 2.31-2.71 7.06-8.42 14.8-12.76 18.6-14.93 12.22-6.92 21.31-12.22 28.1-16.02 7.33-3.94 11.95-6.38 14.93-7.6 21.99-9.37 46.97-20.09 80.77-25.25l2.99-.54c6.65-.95 17.92-2.58 18.6-5.7.54-2.03-3.39-6.92-9.5-10.59-11.13-6.52-24.57-3.25-72.49 13.57-31.22 10.86-46.29 16.7-54.16 19.96-3.53 1.36-5.57 2.31-7.06 2.99-21.99 9.77-36.11 17.65-44.12 22.94-.14.14-.27.27-.41.27-.95.68-1.76 1.22-2.44 1.76-.95-.81-1.76-1.49-2.71-2.17s-2.04-1.36-2.99-1.9c-2.44-1.22-4.89-2.17-7.47-2.58h-.81c-2.17-.4-4.34-.27-6.38.14h-.14c-.14.14-.14 0-.27 0-3.39-.41-6.92-.54-10.59-.27-16.56.82-36.38 7.74-54.98 16.56-1.22.41-2.44.95-3.53 1.63-1.22.54-2.31.95-3.39 1.49-3.26 1.49-15.34 7.06-31.22 17.65-1.76 1.09-3.39 2.17-5.02 3.26-.27.27-.68.41-.95.68-1.49.95-2.99 1.9-4.34 2.85 0 0-6.24 4.34-15.48 12.49-4.07 3.26-8.55 7.46-13.44 12.35-2.31 2.31-4.61 4.62-7.06 7.19-16.56 17.78-35.29 42.35-46.29 72.21-1.36 3.53-2.31 7.06-3.12 10.32-.54 2.31-.95 4.61-1.22 6.65-.27 2.31-.54 4.48-.68 6.93-.14 1.9-.27 3.53-.27 5.02v.54c0 1.36.14 2.71.14 3.8.14 1.49.27 2.71.41 3.8.14 1.36.27 2.44.41 2.99.27 1.76.54 3.53 1.09 5.29.68 2.99 1.76 6.11 3.53 8.96.54.68 1.09 1.49 1.63 2.17.81 1.09 1.76 1.9 2.72 2.71 1.9 1.49 3.94 2.71 5.97 3.8.14.14.41.14.68.27 1.49.68 3.12 1.22 4.75 1.63h.14c0 .13.14.13.27.13 1.22.68 2.44 1.36 3.67 2.04 4.34 2.17 10.32 4.21 15.2 5.56 5.02 1.63 8.82 2.58 8.96 2.72l1.09.27c.54.14 17.1 5.02 17.65 5.16 19.95 5.84 56.06-9.64 56.33-9.77 6.92-2.99 13.57-6.38 19.95-9.91 0 1.22 0 2.58-.14 3.94 0 1.22-.14 2.58-.27 3.94v.14c-5.43 2.85-11 5.56-16.83 8.15-1.22.54-27.01 11.68-48.6 11.68-4.34 0-8.55-.54-12.35-1.63-.27 0-17.1-5.02-17.65-5.16l-.95-.27c-.54-.14-15.75-3.94-25.38-8.69-1.22-.68-2.44-1.22-3.53-2.03-6.11-1.63-12.08-4.75-16.83-10.18-3.94-4.34-9.09-12.49-8.82-31.63.68-34.21 17.78-60.27 23.35-68.82 40.86-62.31 98.55-90.4 109.68-95.29 26.33-11.81 69.5-30.95 93.8-13.44 14.25-9.91 39.91-21.58 46.42-24.57.95-.4 2.04-.81 3.39-1.49 6.79-2.85 21.18-8.55 58.37-21.58 50.19-17.67 64.44-21.2 78.29-12.92 1.49.82 14.66 8.96 12.62 17.92z" fill="#231c0a"/><g fill="#3d3d3d"><path d="m296.73 86.25-.14-.14c.27.82.54 1.63.68 2.44-.14-.82-.41-1.49-.54-2.31zm-122.45 70.72c7.87-6.24 15.88-12.76 23.89-19.55-8.01 5.97-16.02 12.49-23.89 19.55z"/><path d="m214.33 274.12c-6.38 3.53-13.03 6.93-19.95 9.91-.27.14-36.38 15.61-56.33 9.77-.54-.14-17.1-5.02-17.65-5.16l-1.09-.27c-.14-.14-3.94-1.09-8.96-2.72-4.89-1.36-10.86-3.39-15.2-5.56-1.22-.68-2.44-1.36-3.67-2.04.41.14.81.14 1.36.27.68.14 1.49.27 2.17.41h.14c.27 0 .54.14.68.14 7.33.95 14.39 0 18.73-.68.95-.14 1.76-.27 2.44-.41.95-.27 1.49-.4 1.63-.4 2.31-.41 4.75-.95 7.19-1.49 11.27-2.58 23.48-7.06 36.24-13.44.68-.14 1.36-.27 2.04-.54 1.36-.41 3.26-.95 5.7-1.63 0 0 8.01-2.44 17.37-2.58 5.84 0 16.7-.27 22.26 3.39 3.12 2.17 4.34 5.84 4.75 10.59.14.82.14 1.63.14 2.44z"/><path d="m317.9 147.88c-.27 13.3-5.16 23.35-8.42 30-8.28 16.83-29.19 47.37-61.9 73.71v-2.99c0-1.49 0-3.12.14-4.61 1.49-28.92 10.72-38.96 14.52-41.95 1.63-1.22 3.26-2.17 4.89-3.12 3.53-2.04 7.19-4.21 10.45-9.1 6.52-9.5 8.55-25.11 1.63-33.94 9.23-15.34 15.34-29.86 18.05-42.76.54-2.31.95-4.61 1.22-6.92.27-5.97 0-12.08-1.22-17.65-.14-.82-.41-1.49-.54-2.31l-.14-.14c-.41-1.49-.95-2.99-1.63-4.48-.68-1.63-1.49-3.12-2.58-4.48-.27-.54-.54-1.09-.95-1.49 0-.14-.14-.14-.14-.14-.54-.82-1.09-1.49-1.76-2.03-.27-.41-.68-.68-.95-.95-.54-.41-1.09-.95-1.63-1.36-.81-.68-1.76-1.36-2.85-1.9-.54-.41-1.09-.68-1.63-.95-2.72-1.49-5.7-2.44-8.96-2.99h-.14c-.54-.14-.95-.27-1.63-.41 2.04-.41 4.21-.54 6.38-.14h.81c2.58.41 5.02 1.36 7.47 2.58.95.54 2.04 1.22 2.99 1.9s1.76 1.36 2.71 2.17c.68.54 1.36 1.09 1.9 1.77 1.9 1.63 3.53 3.67 5.16 5.7.41.41.68.82.95 1.36h.14c.54.68 1.22 1.49 1.63 2.31.41.54.81 1.09 1.09 1.63q.14.13.14.27c.14.13.14.27.14.4v.14c.27.14.41.27.41.54.27.14.27.41.41.54s.27.41.27.54v.14s.14 0 .14.14c.41.68.68 1.36.95 2.03.81 2.17 1.49 4.21 1.9 6.11.14.14.14.27.14.41.95 4.34 1.22 7.33 2.17 7.47.27 0 .54-.27.81-.95.14-.14.14-.41.27-.68.54 1.36.95 2.45 1.22 3.67.27.82.41 1.77.54 2.72.14.27.14.4.14.54.14.54.27.95.41 1.36 1.76 6.79 3.26 19.41 3.26 19.55.81 5.7 1.63 12.76 1.63 18.73z"/></g><g fill="#adadad"><path d="m298.49 106.2c-21.72-9.77-61.49 2.99-100.32 31.22-8.01 5.97-16.02 12.49-23.89 19.55-.68.54-1.22 1.22-1.9 1.76-47.51 44.26-70.18 95.43-53.75 118.64-.14 0-.68.13-1.63.4-.68.14-1.49.27-2.44.41-4.34.68-11.4 1.63-18.73.68-.14 0-.41-.14-.68-.14h-.14c-.68-.14-1.49-.27-2.17-.41-.54-.13-.95-.13-1.36-.27-.14 0-.27 0-.27-.13h-.14c-1.63-.41-3.26-.95-4.75-1.63-.27-.14-.54-.14-.68-.27-2.04-1.09-4.07-2.31-5.97-3.8-.95-.81-1.9-1.63-2.72-2.71-.54-.68-1.09-1.49-1.63-2.17-1.76-2.85-2.85-5.97-3.53-8.96-.54-1.76-.81-3.53-1.09-5.29-.14-.54-.27-1.63-.41-2.99-.14-1.09-.27-2.31-.41-3.8 0-1.09-.14-2.45-.14-3.8v-.54c0-1.49.14-3.12.27-5.02.14-2.45.41-4.62.68-6.93.27-2.03.68-4.34 1.22-6.65.81-3.26 1.76-6.79 3.12-10.32 11-29.86 29.73-54.43 46.29-72.21 2.44-2.58 4.75-4.89 7.06-7.19 4.89-4.89 9.37-9.09 13.44-12.35 6.92-5.84 13.57-10.86 19.82-15.34.27-.27.68-.41.95-.68 1.63-1.08 3.26-2.17 5.02-3.26 9.91-6.11 21.85-13.03 34.61-19.14 1.09-.68 2.31-1.22 3.53-1.63 15.88-6.92 36.92-15.34 54.98-16.56 3.67-.27 7.19-.14 10.59.27.14 0 .14.14.27 0h.14c.68.14 1.09.27 1.63.41h.14c3.26.54 6.24 1.49 8.96 2.99.54.27 1.09.54 1.63.95 1.09.54 2.04 1.22 2.85 1.9.54.4 1.09.95 1.63 1.36.27.27.68.54.95.95.68.54 1.22 1.22 1.76 2.03 0 0 .14 0 .14.14.41.41.68.95.95 1.49 1.09 1.36 1.9 2.85 2.58 4.48.68 1.49 1.22 2.99 1.63 4.48.27.82.54 1.63.68 2.44 1.22 5.57 1.49 11.68 1.22 17.65z"/><path d="m161.66 105.93c-6.24 4.48-12.9 9.5-19.82 15.34 9.23-8.15 15.48-12.49 15.48-12.49 1.36-.95 2.85-1.9 4.34-2.85z"/><path d="m260.75 64.67c-18.05 1.22-39.09 9.64-54.98 16.56 18.6-8.82 38.42-15.75 54.98-16.56z"/></g><path d="m298.49 106.2c-.27 2.31-.68 4.62-1.22 6.92-2.72 12.9-8.82 27.42-18.05 42.76-.14-.27-.27-.4-.41-.54-5.43-6.52-16.83-9.09-31.22-7.06-19 2.44-41.95 12.9-50.09 30.54-2.99 6.38-2.72 11.81-2.44 16.7.41 5.43.68 10.18-3.53 16.02-3.67 5.3-8.14 7.19-13.3 9.5-6.11 2.71-13.03 5.84-19 14.53-5.16 7.74-10.32 21.58-4.34 26.33 2.17 1.63 4.34 1.36 7.19.54-12.76 6.38-24.98 10.86-36.24 13.44-2.44.54-4.89 1.09-7.19 1.49-16.43-23.21 6.24-74.39 53.75-118.64.68-.54 1.22-1.22 1.9-1.76 7.87-6.24 15.88-12.76 23.89-19.55 38.82-28.24 78.6-41 100.32-31.22z" fill="#7c7a77"/><path d="m198.17 137.43c-8.01 6.79-16.02 13.3-23.89 19.55 7.87-7.06 15.88-13.57 23.89-19.55z" fill="#7c7a77"/><path d="m279.21 155.89c-.14-.27-.27-.4-.41-.54-5.43-6.52-16.83-9.09-31.22-7.06-19 2.44-41.95 12.9-50.09 30.54-2.99 6.38-2.72 11.81-2.44 16.7.41 5.43.68 10.18-3.53 16.02-3.67 5.3-8.14 7.19-13.3 9.5-6.11 2.71-13.03 5.84-19 14.53-5.16 7.74-10.32 21.58-4.34 26.33 2.17 1.63 4.34 1.36 7.19.54.68-.14 1.36-.27 2.04-.54 1.36-.41 3.26-.95 5.7-1.63 0 0 8.01-2.44 17.37-2.58 5.84 0 16.7-.27 22.26 3.39 3.12 2.17 4.34 5.84 4.75 10.59.14.82.14 1.63.14 2.44 0 1.22 0 2.58-.14 3.94 0 1.22-.14 2.58-.27 3.94v.14c-.14 2.44-.41 5.16-.68 8.01s-.54 5.7-.68 8.82c-1.9 23.62-5.84 72.76 16.02 83.62 3.67 1.76 8.15 2.71 12.76 2.71 7.33 0 15.2-2.44 20.5-8.15 11-11.67 5.43-30.81-1.63-55.25-5.02-17.51-11.13-38.82-12.35-62.03-.14-1.36-.14-2.72-.14-4.07-.14-1.36-.14-2.71-.14-4.21v-2.99c0-1.49 0-3.12.14-4.61 1.49-28.92 10.72-38.96 14.52-41.95 1.63-1.22 3.26-2.17 4.89-3.12 3.53-2.04 7.19-4.21 10.45-9.1 6.52-9.5 8.55-25.11 1.63-33.94zm-7.19 30.13c-2.44 3.67-5.16 5.29-8.42 7.06-1.76 1.08-3.53 2.17-5.43 3.67-5.7 4.34-15.61 16.29-17.24 46.83-.14 3.53-.27 6.93 0 10.32-.14.95-.14 1.9 0 2.85 0 1.49.14 2.85.14 4.21.14 1.36.14 2.71.27 3.93 1.76 22.26 7.47 42.08 12.35 58.91 6.52 22.26 11.54 39.91 3.26 48.73-6.24 6.65-18.33 7.47-25.38 3.94-17.78-8.69-13.98-56.6-12.35-76.97.27-2.99.54-5.97.81-8.69.41-4.48.81-8.69.95-12.62.14-1.36.14-2.72.14-3.94 0-1.36-.14-2.72-.27-3.94 0-.82-.14-1.63-.27-2.45-.81-5.16-2.99-9.37-7.33-12.35-6.11-4.07-15.34-4.62-22.4-4.62h-3.8c-1.63 0-3.26.14-4.75.27-8.01.68-14.12 2.58-14.39 2.58-2.44.68-4.34 1.22-5.84 1.63-1.36.54-2.85.95-2.85 1.36-.14-.27-.27-.82-.27-1.49 0-2.99 1.63-9.5 5.97-15.88 4.75-7.06 10.18-9.5 16.02-12.08 5.57-2.45 11.4-5.02 16.15-11.81 5.57-7.87 5.16-14.53 4.75-20.36-.27-4.34-.54-8.55 1.76-13.44 7.06-15.21 28.23-24.43 44.8-26.74 11.67-1.63 21.45.27 25.38 4.88.54.68 1.09 1.49 1.49 2.31 2.85 6.11 1.49 16.84-3.26 23.89z" fill="#eabd7d"/><path d="m272.02 186.02c-2.44 3.67-5.16 5.29-8.42 7.06-1.76 1.08-3.53 2.17-5.43 3.67-5.7 4.34-15.61 16.29-17.24 46.83-.14 3.53-.27 6.93 0 10.32-.14.95-.14 1.9 0 2.85 0 1.49.14 2.85.14 4.21.14 1.36.14 2.71.27 3.93 1.76 22.26 7.47 42.08 12.35 58.91 6.52 22.26 11.54 39.91 3.26 48.73-6.24 6.65-18.33 7.47-25.38 3.94-17.78-8.69-13.98-56.6-12.35-76.97.27-2.99.54-5.97.81-8.69.41-4.48.81-8.69.95-12.62.14-1.36.14-2.72.14-3.94 0-1.36-.14-2.72-.27-3.94 0-.82-.14-1.63-.27-2.45-.81-5.16-2.99-9.37-7.33-12.35-6.11-4.07-15.34-4.62-22.4-4.62h-3.8c-1.63 0-3.26.14-4.75.27-8.01.68-14.12 2.58-14.39 2.58-2.44.68-4.34 1.22-5.84 1.63-1.36.54-2.85.95-2.85 1.36-.14-.27-.27-.82-.27-1.49 0-2.99 1.63-9.5 5.97-15.88 4.75-7.06 10.18-9.5 16.02-12.08 5.57-2.45 11.4-5.02 16.15-11.81 5.57-7.87 5.16-14.53 4.75-20.36-.27-4.34-.54-8.55 1.76-13.44 7.06-15.21 28.23-24.43 44.8-26.74 11.67-1.63 21.45.27 25.38 4.88.54.68 1.09 1.49 1.49 2.31 2.85 6.11 1.49 16.84-3.26 23.89z" fill="#ffd68d"/><path d="m350.75 373.35c-1.49-4.07-2.85-8.01-4.34-11.94-3.12-8.42-19.41-49.27-31.63-49.27h-.41c-6.38.68-6.24 8.01-5.97 22.8.27 14.25.54 36.11-3.53 66.38-1.09 8.82-2.71 18.33-4.75 28.51-.81 4.48-1.76 8.82-2.72 13.03-5.02 23.62-8.96 42.35 2.99 51.72 4.89 3.8 11.54 5.43 18.6 5.43 9.64 0 19.82-2.99 26.74-7.87 26.74-18.87 20.09-73.3 5.02-118.78zm-8.96 113.21c-11 7.74-29.05 9.09-37.19 2.71-8.69-6.79-5.29-22.8-.54-45.06.95-4.21 1.9-8.55 2.72-13.03 2.44-12.08 4.21-23.21 5.43-33.26 3.53-28.64 3.12-49.27 2.99-63.12-.14-6.65-.27-13.3.41-15.75 5.29 2.58 19 26.33 29.59 58.64 2.17 7.19 4.34 14.8 6.24 22.67 10.18 43.17 6.79 74.66-9.64 86.2z" fill="#eabd7d"/><path d="m341.79 486.56c-11 7.74-29.05 9.09-37.19 2.71-8.69-6.79-5.29-22.8-.54-45.06.95-4.21 1.9-8.55 2.72-13.03 2.44-12.08 4.21-23.21 5.43-33.26 3.53-28.64 3.12-49.27 2.99-63.12-.14-6.65-.27-13.3.41-15.75 5.29 2.58 19 26.33 29.59 58.64 2.17 7.19 4.34 14.8 6.24 22.67 10.18 43.17 6.79 74.66-9.64 86.2z" fill="#ffd68d"/><path d="m288.58 259.46c-6.24-2.85-10.32-3.12-12.63-.82-2.31 2.17-1.36 4.75 0 7.87.95 2.17 2.31 5.56 4.07 10.99 1.09 3.26 1.9 5.98 2.44 8.01 1.63 5.56 2.44 8.55 5.97 11.54 2.99 2.44 7.33 4.48 11.54 4.48 2.04 0 3.94-.4 5.7-1.36 6.52-3.53 6.79-12.35 6.79-12.62.54-12.63-13.98-23.76-23.89-28.1zm13.98 34.75c-2.72 1.36-7.06-.14-9.77-2.31-1.76-1.63-2.31-2.99-3.8-8.14-.54-2.31-1.36-4.89-2.44-8.42-1.76-5.29-3.26-8.69-4.07-10.99 3.26.95 9.23 3.8 14.93 8.69 3.26 2.71 8.55 8.41 8.28 14.25 0 1.36-.68 5.56-3.12 6.92z" fill="#eabd7d"/><path d="m305.68 287.29c0 1.36-.68 5.56-3.12 6.92-2.72 1.36-7.06-.14-9.77-2.31-1.76-1.63-2.31-2.99-3.8-8.14-.54-2.31-1.36-4.89-2.44-8.42-1.76-5.29-3.26-8.69-4.07-10.99 3.26.95 9.23 3.8 14.93 8.69 3.26 2.71 8.55 8.41 8.28 14.25z" fill="#ffd68d"/></svg>